<?xml version="1.0" encoding="UTF-8"?>
<svg id="Capa_1" data-name="Capa 1" xmlns="http://www.w3.org/2000/svg" viewBox="0 0 32 24.56">
  <path d="M21.18,11.53c1.08,0,1.99-.9,2-1.99,0-1.09-.89-1.98-1.99-1.99-1.1,0-1.97,.88-1.97,1.99,0,1.09,.88,1.97,1.96,1.98Z"/>
  <path d="M27.52,0H4.48C2.01,0,0,2.01,0,4.48v15.6c0,2.47,2.01,4.48,4.48,4.48H27.52c2.47,0,4.48-2.01,4.48-4.48V4.48c0-2.47-2.01-4.48-4.48-4.48Zm.23,8.77c.28,0,.55,0,.83,0,.42,.01,.74,.32,.76,.73,.03,.38-.25,.75-.65,.8-.63,.08-1.27,.07-1.9,0-.42-.05-.7-.41-.67-.81,.03-.4,.35-.71,.77-.72,.28,0,.57,0,.86,0Zm-.8,6.53c-.31,.31-.77,.31-1.11-.02-.39-.38-.77-.76-1.15-1.15-.24-.25-.31-.54-.17-.86,.13-.31,.39-.46,.72-.46,.22,0,.39,.08,.54,.23,.38,.38,.77,.76,1.15,1.15,.33,.34,.33,.8,.02,1.11Zm-2.34-10.25c.41-.47,.85-.92,1.32-1.32,.29-.25,.74-.2,1.01,.06,.28,.28,.33,.69,.08,1-.4,.49-.86,.93-1.34,1.35-.13,.11-.29,.15-.43,.14-.35,0-.58-.15-.72-.42-.14-.28-.13-.57,.08-.8Zm-3.5-3.63c.42-.04,.75,.21,.84,.63,.07,.32,.01,.64,.04,.96-.02,.32,.03,.64-.04,.96-.09,.42-.42,.67-.83,.64-.39-.03-.69-.34-.7-.75-.01-.56-.01-1.12,0-1.68,0-.42,.3-.72,.69-.76Zm.09,4.58c1.95,0,3.56,1.6,3.55,3.55,0,1.94-1.63,3.55-3.57,3.56-1.95,0-3.54-1.6-3.54-3.57,0-1.97,1.57-3.54,3.55-3.54Zm.76,10.99c-.04,.44-.42,.73-.81,.7-.42-.03-.72-.37-.73-.82,0-.27,0-.53,0-.8,0-.27,0-.53,0-.8,.01-.44,.31-.76,.73-.79,.4-.03,.76,.24,.81,.67,.07,.61,.06,1.23,0,1.84Zm-4.24-2.87c-.38,.42-.79,.82-1.21,1.21-.25,.23-.55,.28-.87,.12-.28-.14-.42-.37-.42-.73,0-.19,.08-.38,.23-.53,.37-.38,.75-.76,1.13-1.13,.34-.32,.78-.33,1.09-.05,.33,.3,.36,.75,.04,1.11ZM15.64,3.65c.28-.14,.59-.13,.83,.09,.44,.41,.87,.84,1.29,1.28,.28,.3,.24,.76-.05,1.04-.28,.27-.74,.31-1.03,.04-.44-.41-.85-.84-1.27-1.26-.13-.14-.19-.31-.18-.49,0-.34,.14-.57,.42-.7Zm-1.84,5.13c.29,0,.57,0,.86,0,.29,0,.57,0,.86,0,.41,.01,.72,.32,.74,.71,.02,.43-.23,.76-.66,.81-.62,.07-1.25,.07-1.87,0-.42-.05-.68-.38-.66-.81,.02-.4,.33-.7,.74-.71Zm16.36,13.83c-.24,.44-.49,.54-.99,.54-1.09,0-2.07-.36-3.06-.76-1.35-.55-2.73-.53-4.09,0-.74,.29-1.46,.61-2.26,.7-1.23,.13-2.44,.07-3.61-.41-.59-.25-1.18-.53-1.83-.61-1.02-.12-2.02-.09-2.98,.32-.72,.31-1.44,.61-2.23,.7-1.29,.15-2.56,.06-3.76-.47-.82-.36-1.65-.62-2.55-.62-.53,0-.86-.36-.84-.83,.02-.46,.36-.73,.89-.74,.43,0,.84,.04,1.26,.12,.15,.03,.31,.06,.46,.1,.16,.05,.22,0,.19-.17-.48-2.99,.33-5.72,1.7-8.34,.24-.45,.25-.44-.24-.56-1.07-.26-2.08-.13-3,.52-.14,.1-.29,.2-.47,.23-.37,.06-.7-.11-.84-.43-.15-.32-.07-.7,.21-.92,.63-.5,1.34-.84,2.13-.99,.71-.14,1.43-.11,2.14,.04,.07,.02,.14,.02,.26,.04-.25-.5-.6-.85-1.02-1.13-.66-.45-1.41-.62-2.18-.74-.53-.08-.82-.57-.64-1.04,.12-.32,.44-.55,.78-.51,1.4,.18,2.69,.61,3.7,1.66,.55,.57,.94,1.23,1.13,1.99,.06,.23,.16,.28,.4,.28,.99-.02,1.91,.24,2.77,.73,.8,.46,1.47,1.07,2.06,1.78,.31,.37,.3,.86-.01,1.14-.36,.32-.83,.28-1.17-.12-.58-.68-1.22-1.28-2.05-1.64-.21-.09-.42-.18-.7-.22,.3,.43,.56,.83,.76,1.27,.47,1.02,.64,2.05,.22,3.13-.2,.52-.72,.71-1.16,.44-.28-.17-.45-.5-.34-.8,.44-1.19-.04-2.16-.72-3.08-.47-.63-.47-.63-.83,.06-.7,1.35-1.19,2.78-1.39,4.29-.16,1.21-.11,2.4,.24,3.58,.06,.2,.15,.3,.35,.33,1.13,.19,2.24,.16,3.31-.29,.65-.27,1.31-.55,2.02-.66,1.33-.19,2.62-.11,3.88,.41,.55,.23,1.09,.48,1.7,.57,1.06,.15,2.09,.1,3.09-.32,.64-.27,1.29-.55,1.99-.65,1.34-.2,2.64-.12,3.9,.41,.57,.24,1.13,.5,1.75,.58,.28,.03,.57,.07,.85,.07,.39,0,.66,.18,.84,.53v.5Z"/>
</svg>