<?xml version="1.0" encoding="utf-8"?>
<!-- Generator: Adobe Illustrator 26.4.1, SVG Export Plug-In . SVG Version: 6.00 Build 0)  -->
<svg version="1.1" id="Capa_1" xmlns="http://www.w3.org/2000/svg" xmlns:xlink="http://www.w3.org/1999/xlink" x="0px" y="0px"
	 viewBox="0 0 553.77 90" style="enable-background:new 0 0 553.77 90;" xml:space="preserve">
<g id="PbsTS2.tif">
	<g>
		<path d="M99.64,67.6c-3.49,3.03-7.02,5.84-10.66,8.5c-3.29,2.4-6.61,4.7-10.71,5.54c-5.39,1.09-8.95-1.42-9.71-6.85
			c-0.08-0.58,0.13-1.36-0.58-1.63c-0.7-0.27-1.07,0.47-1.53,0.83c-1.66,1.29-3.29,2.62-4.94,3.93c-1.12,0.89-2.4,1.38-3.83,1.45
			c-2.93,0.14-4.9-1.69-5.16-4.74c-0.15-1.8,0.14-3.56,0.64-5.45c-1.02,0.14-1.51,0.76-2.08,1.2c-8.35,6.35-16.9,12.37-26.36,16.98
			c-4.53,2.21-9.21,3.45-14.28,2.04c-3.41-0.94-5.89-2.96-7.65-6c-2.91-5.02-3.15-10.51-2.47-16c2.57-20.66,11.2-38.69,24.32-54.65
			c3.89-4.73,8.4-8.9,14.18-11.35c4.41-1.88,8.84-2.02,12.96,0.68c4.59,3.02,5.78,7.67,5.34,12.81c-0.55,6.42-4.2,11.1-8.99,15.03
			c-0.91,0.75-1.89,0.82-2.77-0.05c-0.91-0.9-0.49-1.79,0.17-2.6c1.93-2.37,3.51-4.93,4.61-7.78c1.32-3.43,1.54-6.9,0.24-10.37
			c-1.19-3.18-3.05-4.06-6.29-3.07c-3.52,1.07-6.42,3.16-9.12,5.59c-6.57,5.92-11.4,13.18-15.79,20.75
			c-5.6,9.68-9.37,20.06-11.32,31.08C7.06,68,6.46,72.56,7.38,77.18c0.25,1.27,0.54,2.51,1.18,3.64c1.87,3.31,3.95,4.01,7.59,2.95
			c7-2.05,13.12-5.79,19.09-9.81c7.5-5.05,14.76-10.41,21.68-16.24c1.95-1.64,3.56-3.51,4.97-5.62c0.91-1.36,1.92-2.67,2.99-3.92
			c1.12-1.31,2.52-2.1,4.35-1.61c2.12,0.57,2.7,1.97,1.5,3.81c-1.91,2.92-3.92,5.77-5.68,8.79c-1.87,3.21-3.38,6.57-4.61,10.06
			c-0.13,0.36-0.47,0.83-0.08,1.14c0.39,0.3,0.77-0.11,1.07-0.35c0.48-0.38,0.92-0.81,1.35-1.25c3.6-3.66,7.18-7.33,10.81-10.97
			c1.52-1.52,2.9-1.75,4.6-0.93c1.66,0.8,2.13,1.92,1.44,3.63c-1.43,3.57-3.09,7.06-4.04,10.8c-0.28,1.09-0.56,2.2-0.64,3.32
			c-0.11,1.45,0.6,1.98,2,1.59c2.46-0.69,4.58-2.05,6.63-3.51c7.12-5.07,13.87-10.58,20.1-16.72c1.1-1.09,2.08-2.26,2.94-3.55
			c2.6-3.91,5.51-7.55,9.33-10.35c1.5-1.1,3.16-1.88,4.9-2.56c2.07-0.81,4.02-0.57,5.94,0.42c2.2,1.14,3.19,2.96,2.92,5.43
			c-0.26,2.3-1.29,4.32-2.45,6.26c-4.64,7.75-10.8,14.05-18.42,18.9c-0.48,0.3-0.98,0.58-1.41,0.93c-0.9,0.74-0.78,1.53,0.11,2.16
			c1.11,0.78,2.37,0.88,3.69,0.63c2.84-0.55,5.53-1.55,8.13-2.8c8.73-4.2,16.9-9.29,24.35-15.51c1.14-0.96,2.18-1.89,2.3-3.61
			c0.09-1.33,0.92-2.5,1.87-3.47c4.41-4.53,9.45-8.18,15.26-10.75c2.06-0.91,3.8-0.44,5.42,0.9c1.34,1.11,1.34,2.51,0.05,3.69
			c-0.73,0.67-1.61,1.09-2.52,1.45c-4.71,1.86-8.15,5.46-11.84,8.7c-0.47,0.41-0.4,0.82,0.04,1.16c0.49,0.37,1.01,0.69,1.55,0.99
			c1.89,1.05,3.79,2.06,5.34,3.61c2.09,2.1,2.79,4.62,2.19,7.49c-0.96,4.53-3.57,8.15-6.6,11.48c-5.01,5.5-11.24,9.21-18.06,12
			c-1.7,0.7-3.41,0.55-5.04-0.38c-1.26-0.72-2.03-1.71-1.98-3.22c0.04-1.43,1.07-2,2.2-2.48c7.28-3.09,13.31-7.85,18.44-13.81
			c1.45-1.68,2.65-3.52,3.42-5.63c0.49-1.35,0.1-2.32-1.15-2.94c-1.43-0.7-2.9-1.32-4.32-2.03c-0.73-0.36-1.12,0.02-1.6,0.46
			c-9.01,8.28-19.22,14.69-30.5,19.39c-4.38,1.83-8.78,2.01-13.03-0.48c-3.85-2.25-5.86-5.5-5.26-10.08c0.02-0.15,0-0.3-0.02-0.46
			C99.84,67.88,99.8,67.84,99.64,67.6z M107.74,63.97c0.91,0.06,1.28-0.4,1.7-0.75c5.17-4.32,9.44-9.39,12.81-15.22
			c0.48-0.82,1.32-1.88,0.49-2.62c-0.72-0.64-1.72,0.25-2.44,0.78c-3.37,2.51-6.11,5.61-8.34,9.16
			C110.27,57.99,108.77,60.77,107.74,63.97z"/>
		<path d="M498.88,65.09c-1.05,0.74-2.04,1.44-3.03,2.13c-6.59,4.58-13.44,8.7-20.92,11.69c-5.22,2.09-10.22,1.99-14.82-1.62
			c-2.81-2.21-3.98-5.12-3.61-8.67c0.02-0.19-0.02-0.38-0.05-0.86c-1.73,1.53-3.28,2.92-4.84,4.28c-3.21,2.81-6.49,5.54-10.18,7.69
			c-2.21,1.28-4.58,2.01-7.19,1.91c-3.46-0.14-6.05-2.15-6.89-5.53c-0.68-2.77-0.77-5.58-0.48-8.41c0.15-1.43,0.23-2.86,0.34-4.29
			c0.02-0.26,0.04-0.54-0.23-0.68c-0.37-0.19-0.57,0.09-0.75,0.34c-0.99,1.37-1.99,2.74-2.95,4.14c-3.82,5.6-7.61,11.21-11.42,16.81
			c-0.26,0.38-0.52,0.76-0.82,1.12c-1.18,1.43-2.93,1.8-4.4,0.95c-1.46-0.85-1.96-2.38-1.19-4.15c1.1-2.54,2.31-5.04,3.49-7.54
			c1.46-3.1,2.93-6.19,4.31-9.35c-3.86,3.31-7.82,6.46-12.07,9.21c-2.2,1.42-4.37,2.89-6.76,3.97c-2.03,0.91-4.11,1.59-6.38,1.56
			c-3.96-0.06-6.86-2.67-7.19-6.59c-0.12-1.43-0.14-2.87,0.18-4.29c0.13-0.58,0.43-1.44-0.1-1.72c-0.7-0.37-1.1,0.52-1.54,0.96
			c-2.14,2.15-4.26,4.3-6.35,6.49c-1.44,1.51-3.09,2.23-5.12,1.48c-2.12-0.79-2.77-2.55-2.85-4.66c-0.08-2.03,0.28-3.99,0.87-5.91
			c2.01-6.51,5.11-12.43,9.6-17.57c2.52-2.89,5.32-5.44,9.34-6.09c3.42-0.56,7.55,1.57,9.04,4.64c0.6,1.25,0.03,2.31-0.49,3.36
			c-2.38,4.79-4.41,9.72-5.78,14.9c-0.66,2.47-1.48,4.92-1.44,7.53c0.03,1.95,0.83,2.55,2.64,1.8c4.77-1.98,8.99-4.92,13.2-7.85
			c5.8-4.04,10.73-9.07,15.8-13.94c1.23-1.18,0.94-2.97,1.17-4.52c0.26-1.72,0.28-3.48,0.61-5.18c0.41-2.09,1.44-3.02,2.94-3.03
			c1.76-0.01,3.26,1.22,3.74,3.07c0.56,2.15,0.25,4.28-0.13,6.41c-0.2,1.11-0.42,2.22-0.61,3.33c-0.28,1.59-0.04,1.83,1.43,1.34
			c0.85-0.28,1.7-0.36,2.58-0.33c2.52,0.1,4.21,1.58,4.73,4.03c0.5,2.37,0.08,4.7-0.14,7.05c-0.24,2.5-0.53,5-0.46,7.52
			c0.01,0.46,0.04,0.93,0.13,1.37c0.32,1.5,0.95,1.84,2.28,1.14c0.91-0.47,1.78-1.03,2.62-1.61c7.67-5.3,14.52-11.54,21.2-18.02
			c3.24-3.14,6.21-6.5,9.25-9.8c2.3-2.49,5.04-4.33,8.23-5.53c2.13-0.8,4.11-0.63,6.08,0.4c2.19,1.14,3.17,2.97,2.88,5.45
			c-0.26,2.3-1.3,4.31-2.46,6.26c-4.65,7.75-10.8,14.04-18.43,18.89c-0.43,0.28-0.89,0.53-1.29,0.84c-0.98,0.77-0.92,1.68,0.16,2.34
			c1.11,0.68,2.3,0.76,3.57,0.52c2.84-0.55,5.53-1.55,8.13-2.8c8.68-4.18,16.81-9.24,24.23-15.42c2.28-1.9,4-4.1,5.05-6.99
			c4.19-11.59,9.31-22.8,14.76-33.85c1.42-2.88,3.08-5.56,5.47-7.74c1.45-1.33,3.07-1.56,4.85-0.87c1.81,0.7,2.61,2.16,2.17,4.04
			c-0.71,2.98-2.28,5.6-3.64,8.29c-2.81,5.55-5.91,10.92-9.24,16.17c-5.19,8.18-8.08,17.38-11.49,26.34
			c-1.86,4.89-3.41,9.89-5.11,14.84c-0.57,1.67-0.89,3.36-0.77,5.14c0.15,2.27-0.27,2.97-1.92,3.41c-1.73,0.47-3.59-0.38-4.38-2.02
			c-0.91-1.9-0.79-3.9-0.47-5.89c0.56-3.52,1.87-6.82,3.03-10.16C498.75,66.27,499.12,65.84,498.88,65.09z M479.7,46.02
			c0.09-0.82-0.4-1.01-1.22-0.7c-1.22,0.46-2.2,1.3-3.17,2.14c-4.76,4.18-8.07,9.37-10.46,15.19c-0.16,0.39-0.62,0.95-0.16,1.25
			c0.49,0.33,0.92-0.27,1.29-0.57c5.3-4.41,9.66-9.6,13.09-15.58C479.35,47.26,479.64,46.77,479.7,46.02z M373.6,64.84
			c0.27-0.22,0.56-0.43,0.8-0.68c4.37-4.3,7.88-9.29,11.46-14.23c0.18-0.24,0.29-0.54,0.4-0.83c0.1-0.29,0.16-0.62-0.1-0.86
			c-0.27-0.25-0.59-0.12-0.85,0.03c-0.49,0.28-0.98,0.56-1.43,0.9c-3.13,2.35-5.4,5.44-7.41,8.74
			C375.18,60.05,374.08,62.29,373.6,64.84z"/>
		<path d="M324.49,58.76c2.6-3.69,5.1-7.25,7.61-10.81c3.83-5.41,7.93-10.61,12.46-15.45c3.1-3.31,6.59-6.17,10.74-8.13
			c1.69-0.8,3.4-1.07,5.21-0.34c2.27,0.92,3.47,2.88,3.36,5.33c-0.16,3.79-1.41,7.35-2.36,10.96c-2.76,10.58-5.83,21.06-9.47,31.38
			c-0.98,2.76-2.09,5.47-3.45,8.06c-1.29,2.48-2.82,3.27-4.58,2.47c-1.83-0.84-2.18-2.33-1.07-5.04
			c4.44-10.81,7.16-22.15,10.45-33.32c1.19-4.04,2.33-8.09,3.48-12.13c0.15-0.54,0.47-1.19-0.05-1.58
			c-0.58-0.44-1.04,0.21-1.47,0.51c-5.79,4.05-10.35,9.33-14.7,14.81c-6.07,7.64-11.43,15.8-17.29,23.6
			c-1.02,1.36-2.08,2.68-3.3,3.86c-1.49,1.43-3.1,1.69-4.78,0.8c-1.26-0.67-1.86-2.11-1.41-4.04c1.58-6.69,3.22-13.36,4.88-20.03
			c1.07-4.31,1.72-8.65,1.41-13.1c-0.15-2.11-0.55-2.4-2.44-1.35c-2.49,1.37-4.52,3.36-6.61,5.27c-3.45,3.16-6.52,6.69-9.6,10.19
			c-0.94,1.07-1.35,2.4-1.81,3.71c-2.61,7.46-5.14,14.95-8.76,22.01c-0.72,1.42-1.52,2.79-2.3,4.18c-0.48,0.86-1.06,1.63-1.79,2.29
			c-1.35,1.22-2.87,1.84-4.66,1.12c-1.8-0.73-2.4-2.25-2.5-4.07c-0.13-2.64,0.7-5.07,1.61-7.47c2.54-6.73,6.02-13,10.54-18.53
			c4.13-5.06,5.84-10.98,7.5-17.02c0.27-0.98,0.2-1.96-0.59-2.72c-0.9-0.88-0.95-1.87-0.45-2.96c0.28-0.61,0.51-1.23,0.82-1.82
			c0.88-1.67,2-2.33,3.41-2.03c1.78,0.37,2.82,1.6,2.93,3.46c0.09,1.71-0.21,3.37-0.5,5.04c-0.1,0.57-0.42,1.34,0.23,1.69
			c0.6,0.32,0.97-0.41,1.38-0.74c1.9-1.57,3.75-3.19,5.67-4.75c2.13-1.73,4.55-2.88,7.33-2.79c3.69,0.13,6.33,3.09,6.88,7.27
			c0.67,5.08-0.22,10.02-1.13,14.97c-0.32,1.71-0.77,3.4-1.16,5.1C324.05,57.28,323.84,57.98,324.49,58.76z"/>
		<path d="M211.1,71.27c-0.02-0.77,0.09-1.74,0.28-2.7c0.09-0.48,0.32-1.15-0.17-1.43c-0.55-0.31-0.89,0.34-1.23,0.68
			c-2.2,2.22-4.4,4.45-6.56,6.72c-1.47,1.54-3.14,2.35-5.24,1.56c-2.12-0.8-2.75-2.57-2.83-4.68c-0.08-2.03,0.29-3.98,0.88-5.9
			c2-6.45,5.07-12.33,9.5-17.45c2.47-2.86,5.21-5.41,9.14-6.13c3.58-0.65,7.55,1.26,9.26,4.44c0.66,1.23,0.16,2.3-0.37,3.36
			c-2.4,4.84-4.46,9.81-5.85,15.04c-0.66,2.47-1.48,4.92-1.43,7.53c0.04,1.94,0.83,2.55,2.64,1.79c4.91-2.06,9.27-5.05,13.56-8.14
			c4.26-3.06,8.19-6.51,11.88-10.24c1.12-1.13,2.27-2.23,3.48-3.26c1.27-1.08,2.45-1.05,3.78-0.06c1.27,0.95,1.44,1.85,0.48,3.14
			c-1.89,2.57-4.12,4.86-6.39,7.08c-5.63,5.52-11.87,10.27-18.66,14.28c-1.95,1.15-4,2.1-6.23,2.6
			C215,80.85,211.05,77.66,211.1,71.27z M203.56,64.81c0.81-0.12,1.12-0.63,1.49-1.01c4.17-4.2,7.58-9.01,11.04-13.78
			c0.21-0.28,0.38-0.62,0.46-0.96c0.18-0.72-0.03-1.17-0.86-0.82c-0.47,0.19-0.9,0.48-1.32,0.78c-2.55,1.8-4.47,4.21-6.23,6.74
			C206.21,58.52,204.66,61.49,203.56,64.81z"/>
		<path d="M174.71,50.49c-0.92,0-1.85,0.03-2.77-0.01c-0.95-0.04-1.8-0.39-2.53-1c-0.69-0.57-1.01-1.3-0.81-2.19
			c0.19-0.9,0.89-1.2,1.71-1.28c2.75-0.28,5.51-0.6,8.27-0.77c1.24-0.08,1.73-0.66,2.13-1.76c2.22-6.07,4.38-12.17,7.02-18.07
			c0.5-1.12,1.07-2.22,1.69-3.28c1.09-1.86,2.43-2.4,3.9-1.65c1.72,0.87,2.17,2.29,1.33,4.28c-2.46,5.86-5.27,11.58-7.18,17.67
			c-0.65,2.07-0.59,2.17,1.56,2.03c2.92-0.2,5.83-0.38,8.75-0.56c0.41-0.03,0.83-0.04,1.23,0.02c1.24,0.16,2.46,0.61,2.59,1.98
			c0.14,1.41-1.06,2.06-2.23,2.36c-2.14,0.56-4.38,0.46-6.57,0.69c-2.19,0.23-4.39,0.42-6.59,0.56c-0.85,0.06-1.27,0.45-1.53,1.23
			c-3.55,10.66-7.12,21.31-10.7,31.96c-0.26,0.78-0.49,1.57-0.83,2.31c-0.54,1.16-1.5,1.68-2.77,1.41
			c-1.22-0.26-1.97-1.02-2.12-2.32c-0.13-1.15,0.09-2.25,0.41-3.34c2.74-9.57,5.32-19.18,8.91-28.49c0.74-1.93,0.7-1.94-1.35-1.84
			c-0.51,0.03-1.03,0-1.54,0C174.71,50.47,174.71,50.48,174.71,50.49z"/>
		<path d="M523.44,80.65c-5.15-0.07-8.36-4.22-7.27-9.45c1.67-7.95,5.66-14.69,11.37-20.42c1.02-1.02,2.27-1.6,3.77-1.28
			c2.16,0.47,2.83,2.11,1.5,3.87c-1.95,2.58-3.93,5.14-5.53,7.95c-1.95,3.4-3.51,6.96-4.38,10.8c-0.06,0.25-0.14,0.5-0.15,0.75
			c-0.04,0.56-0.15,1.16,0.42,1.54c0.54,0.36,0.98-0.06,1.41-0.29c2.82-1.51,5.4-3.36,7.85-5.41c5.59-4.68,10.96-9.6,16.06-14.82
			c1.57-1.61,2.86-1.8,4.33-0.71c0.96,0.72,1.28,1.63,0.59,2.67c-0.77,1.15-1.52,2.34-2.48,3.33c-5.66,5.88-11.25,11.84-17.74,16.83
			c-2.61,2.01-5.26,3.97-8.64,4.49C524.07,80.59,523.61,80.63,523.44,80.65z"/>
		<path d="M533.6,37.16c-0.01-2.55,1.27-4.31,3.17-4.33c2.1-0.03,4.08,1.7,4.11,3.59c0.03,2.16-2,4.83-3.7,4.86
			C535.06,41.31,533.61,39.64,533.6,37.16z"/>
	</g>
</g>
</svg>
